# xmcd
#
# Track frame offsets: 
#        151
#        14770
#        27745
#        43292
#        55120
#        65767
#        91740
#        106740
#        121808
#        129728
#        141784
#        157522
#        175844
#        188579
#        204409
#        215984
#        226542
#        238816
#        251487
#        266920
#        275162
#        287710
#        298605
#
# Disc length: 4184 seconds
#
# Revision: 5
# Processed by: cddbd v1.5.2PL0 Copyright (c) Steve Scherf et al.
# Submitted via: ExactAudioCopy v0.99pb4
#
DISCID=5d105617
DTITLE=Boxcar Willie - The Best Of Boxcar Willie
DYEAR=1998
DGENRE=
TTITLE0=Freightline Fever
TTITLE1=Truck Drivin' Man
TTITLE2=Phantom 309
TTITLE3=Truck Drivin' Son Of A Gun
TTITLE4=Six Days On The Road
TTITLE5=Teddy Bear
TTITLE6=White Line Fever
TTITLE7=Girl On A Billboard
TTITLE8=America
TTITLE9=Trucker's Prayer
TTITLE10=Forty Acres
TTITLE11=Convoy
TTITLE12=Spirit Of America
TTITLE13=Old Kentucky
TTITLE14=Home Dixie
TTITLE15=Thank You Old Flag Of Mine
TTITLE16=How Fast Them Trucks Will Go
TTITLE17=North To Alaska
TTITLE18=Play The Star Spangled Banner Over Me
TTITLE19=Battle Hymn Of The Republic
TTITLE20=There's A Start Spangled Banner Waving Somewhere
TTITLE21=Yankee Doodle
TTITLE22=Battle Of New Orleans
EXTD=
EXTT0=
EXTT1=
EXTT2=
EXTT3=
EXTT4=
EXTT5=
EXTT6=
EXTT7=
EXTT8=
EXTT9=
EXTT10=
EXTT11=
EXTT12=
EXTT13=
EXTT14=
EXTT15=
EXTT16=
EXTT17=
EXTT18=
EXTT19=
EXTT20=
EXTT21=
EXTT22=
PLAYORDER=
